<svg xmlns="http://www.w3.org/2000/svg" viewBox="0 0 159.38 157.79"><defs><style>.cls-1{fill:#dba11f;}.cls-2{fill:#c98f1c;}.cls-3{fill:#d66156;}.cls-4{fill:#f88f79;}.cls-5{opacity:0.57;}.cls-6{fill:#ea7663;}.cls-7{fill:#fcab9d;}.cls-8{fill:#d86155;}.cls-9{fill:#e86969;}.cls-10{fill:#efb118;}.cls-11{fill:#efb420;}</style></defs><title>Asset 4</title><g id="Layer_2" data-name="Layer 2"><g id="Layer_1-2" data-name="Layer 1"><path class="cls-1" d="M157,34.68c-3.33-2.66-13.06-1.9-15.9,6.89-2.34,7.25,10.13,22.54,14,9a35.71,35.71,0,0,1,3.81-10C160.35,38,158.06,35.51,157,34.68Z"/><path class="cls-2" d="M155.46,45.69l-.72,0a2.28,2.28,0,0,0-.67-2c-1.19-1-3.56-.5-3.59-.49l-.16-.7c.11,0,2.75-.6,4.21.64A3,3,0,0,1,155.46,45.69Z"/><path class="cls-3" d="M3.27,94.77,20.9,154.2s3.38.14,4.8.29l-11.05,3.26C8.23,159.64,2.88,99.11,3.27,94.77Z"/><path class="cls-4" d="M21.2,33.38C48.42,18.24,64.89,14.92,73.86,5.26c14.89-16.05,67.33,69.69,26.36,106.52-46.7,42-80.3,44-80.3,44S11.37,136.45,5,101.62C2.93,90.5-11.64,51.65,21.2,33.38Z"/><g class="cls-5"><path class="cls-6" d="M106.56,88.64c-4.36,46.2-87.17,23.6-87.21,65.83,0,3.32,34.12-5.07,59.33-25.31,12.57-10.1,50.45-27.54,32.42-81.68C111.1,47.48,107.2,81.84,106.56,88.64Z"/></g><path class="cls-7" d="M39.29,52.31c-36-8.79-34.9,30.66-14.34,38C49.17,99,64.57,82.14,60.55,66.14,59.06,60.21,50,54.92,39.29,52.31Z"/><path class="cls-8" d="M85.63,0C77.49,0,66.28,9.48,64.75,22.63,62.81,39.34,78.86,95.58,98.41,98,137.85,102.93,99.52-.05,85.63,0Z"/><path class="cls-9" d="M20.57,156.09l-1.32-.57c6.18-14.42,24.65-21.72,42.52-28.77,21.4-8.45,43.53-17.19,44.08-38.13l1.43,0c-.57,21.89-23.15,30.81-45,39.43C44.71,135,26.51,142.22,20.57,156.09Z"/><path class="cls-10" d="M71.11,60.41a23.16,23.16,0,0,1,8.28-.21,13.47,13.47,0,0,1,5.67,2.27c4.33,3.15,2.78,8.3,2.78,8.3s5.41-.58,7.9,3,2,9.68,2,9.68a11.37,11.37,0,0,1,9.81,0c4.16,1.91,6,4,5.67,5.89-1.38,7.57-14.15,17.6-28.61-1C77.19,78.77,71.11,60.41,71.11,60.41Z"/><path class="cls-11" d="M79.45,61.54s.2,19.22,5.16,26.82c0,1.4-10.31-14.4-13.5-27.9,0,0,5.23-1,8.28-.21Z"/><path class="cls-1" d="M94.75,32.74c-.2,1.84-2.36,3.61-4.61,1.45-3.74-3.59-5.06-11,5-16.5,2.4-1.32-1.95-.12,1.95-1.83C97,15.87,96.09,20.15,94.75,32.74Z"/><path class="cls-10" d="M117.89,18.58c-1.77.73-7,.75-12.06,3.66-5.41,3.14-10.54,9.22-11.18,11.18,0,0-.57,1.48-.39.25,1.49-10-3.25-21.45,5.29-25.76C112.35,1.46,124.35,15.94,117.89,18.58Z"/></g></g></svg>