<svg xmlns="http://www.w3.org/2000/svg" viewBox="0 0 107.28 119.66"><defs><style>.cls-1{fill:#dba11f;}.cls-2{fill:#efb118;}.cls-3{fill:#edb324;}.cls-4{fill:#c98f1c;}</style></defs><title>Asset 5</title><g id="Layer_2" data-name="Layer 2"><g id="Layer_1-2" data-name="Layer 1"><path class="cls-1" d="M14,2.94A2.2,2.2,0,0,1,17.08.22c4.16,1.52,7.73,6.86,1.79,14.61-1.43,1.86,1.56-.58-.89,2.1C18,16.93,17.26,13.25,14,2.94Z"/><path class="cls-2" d="M.73,22C3.09,19.52,14.13,5.75,13.82,2.37c0,0-.06-1.35.22-.33,2.27,8.33,9.91,15.67,4.71,22C11,33.46-3.4,26.26.73,22Z"/><path class="cls-2" d="M98,119.47l0,0c4.74-.09,12.8-9.92,7.43-19.94-4.43-8.27-37.25-6.28-19.73,6.66,3,2.21,4,8.28,5.46,10C95.31,120.85,98,119.47,98,119.47Z"/><path class="cls-3" d="M89.17,108c-1.23-1.36,5.33-1.42,5.33-1.42S92.36,111.51,89.17,108Z"/><path class="cls-4" d="M91.76,107.46h-.09a.36.36,0,0,1-.26-.43,3.52,3.52,0,0,1,1.75-2.15,4.83,4.83,0,0,1,4.12.28.36.36,0,1,1-.29.66,4.17,4.17,0,0,0-3.5-.3,2.83,2.83,0,0,0-1.38,1.68A.36.36,0,0,1,91.76,107.46Z"/></g></g></svg>